<svg xmlns="http://www.w3.org/2000/svg" viewBox="0 0 3774.98 732"><defs><style>.cls-1{fill:#fff;}</style></defs><g id="Layer_2" data-name="Layer 2"><g id="Layer_1-2" data-name="Layer 1"><path class="cls-1" d="M3022.64,324.81C2976.46,230,2863.2,233,2852.4,233.47l-.83,0-37.08.3c-47,3.51-75.26,19.51-75.26,19.51s-17.36,4.6-52.08,35.75-40.85,80.68-40.85,80.68-11.24,21.45,5.61,83.74,82.73,95,82.73,95,40.85,24,129.7,22.33,142.47-67.26,142.47-67.26S3071.15,424.39,3022.64,324.81ZM2870.71,465s-31.66,14.55-70-4.6-28.34-75.57-28.34-75.57,8.43-28.6,29.87-41.36,50-8.94,50-8.94,58,4.85,59.74,61.79S2870.71,465,2870.71,465Z"/><path class="cls-1" d="M798.47,61.32S727.37,21.41,603.79,0L579.92,51.11s-64.34-16.85-216.51-2.3L340.43,0S238.56,12.81,142.81,61.07c0,0-170.55,203.49-138.89,549.7,0,0,132.77,99.49,238,121.23,0,0,21.44-21.14,52.08-83.44,0,0-73.53-31.66-79.66-38.81l20.43-17.36s209.36,124.59,474.89,1L729,608.73s-50,29.61-79.66,38.81c0,0,10.21,29,50,84.46,0,0,111.32-22.17,239-121.23C938.39,610.77,985.37,315.62,798.47,61.32ZM315.41,499.45c-45.69,0-82.72-43.67-82.72-97.53s37-97.53,82.72-97.53,82.72,43.66,82.72,97.53S361.1,499.45,315.41,499.45Zm312.51,0c-45.69,0-82.72-43.67-82.72-97.53s37-97.53,82.72-97.53,82.72,43.66,82.72,97.53S673.61,499.45,627.92,499.45Z"/><path class="cls-1" d="M1506,184.9H1269.11V556.64h214.46s206.3,0,208.34-185.87S1506,184.9,1506,184.9Zm49.53,185.87c-1.53,90.64-85.78,92.94-85.78,92.94h-72.51V280.64h70S1557.11,280.13,1555.57,370.77Z"/><path class="cls-1" d="M1738.38,320.72v240H1865v-240S1810.38,351,1738.38,320.72Z"/><ellipse class="cls-1" cx="1801.7" cy="222.04" rx="63.32" ry="58.6"/><path class="cls-1" d="M1922.38,437.49v89.19s54.81,40.85,147.75,42.89,32,0,32,0,129,3.07,140.93-92.59V449.74s-.93-44-40-63.65S2140.51,366,2140.51,366s-88.08-12.34-85.53-28.43,27.74-17.36,27.74-17.36,48.6-5.1,96.85,9.7c0,0,35,12.52,43.92,21.45h3.06v-84s-42.38-28.85-119.74-32.93H2065.7s-62.55,1.27-100.08,28.59-39.32,55.41-39.32,55.41v30.89s-3.32,24.06,28.59,53.13,134.3,43.12,134.3,43.12,22.21,5.37,22,19.41-20.94,17.62-20.94,17.62a131.62,131.62,0,0,1-14,1c-8.94.25-19.15,0-19.15,0S1975.4,479.45,1922.38,437.49Z"/><path class="cls-1" d="M2607.32,534.17V440.55s-37.79,22.13-81,26.56h-33.36s-80-9.2-82.05-56.85,30.3-58.56,30.3-58.56,69.45-41.53,161,11.24h5.11V267.62s-35.41-29.62-114.38-33.71-131.07,23.83-131.07,23.83-54.47,27.92-72.17,74.56-13.27,70.15-13.27,70.15-1.71,30.27,9.87,59.89,20.08,35.4,28.93,47.32,28.6,31,73.88,47.66,106.21,13.16,106.21,13.16S2565.45,566.85,2607.32,534.17Z"/><path class="cls-1" d="M3087.32,247.87V558.68h127V446.34s6.13-134.13,136.85-78V252.64s-42.89-27.58-88.51-1-50.73,92.59-50.73,92.59V247.53Z"/><path class="cls-1" d="M3647.32,175.37V314.26s-21.45-76.6-110.64-80.34-121.87,49-121.87,49-35.24,33.19-39.32,95,6.64,88.34,6.64,88.34,19.4,64.85,69.95,87.83,83.75,15.32,83.75,15.32,44.42-.51,74.55-27.58,35.75-49.53,35.75-49.53V559H3775V175.37Zm-40.77,289.1s-31.66,14.55-70-4.59-28.34-75.58-28.34-75.58,8.43-28.59,29.88-41.36,50-8.94,50-8.94,58,4.85,59.74,61.79S3606.55,464.47,3606.55,464.47Z"/></g></g></svg>